<mxfile host="app.diagrams.net" modified="2023-05-29T12:02:44.818Z" agent="Mozilla/5.0 (X11; Linux x86_64; rv:109.0) Gecko/20100101 Firefox/113.0" version="21.3.5" etag="0etfwX3FPHSozRYN1l3Q" type="github">
  <diagram name="Page-1" id="WB194KLfqTSf1NLMwTwY">
    <mxGraphModel>
      <root>
        <mxCell id="0" />
        <mxCell id="1" parent="0" />
      </root>
    </mxGraphModel>
  </diagram>
</mxfile>
